#!OML:ASF I:\golf\golf\golf 2\Subject 1\2002-09-07\Subject1.ASF
:FULLY-SPECIFIED
:DEGREES
186
root -6.52814 17.4557 2.47236 3.05803 50.7565 -9.77445
lowerback 4.90982 -9.44872 -12.2167
upperback 0.778088 -13.1167 -2.54755
thorax 0.198989 -6.51222 4.31579
lowerneck -7.86505 20.1019 2.6506
upperneck 16.8221 30.4695 -14.1701
head 9.26581 13.3637 -1.38475
rclavicle -1.20066e-013 3.18055e-015
rhumerus 30.7846 -20.9427 -60.5715
rradius 108.332
rwrist 7.64216
rhand -65.1782 47.1684
rfingers 7.12502
rthumb -37.0662 21.1211
lclavicle -1.20066e-013 3.18055e-015
lhumerus 109.01 -39.8636 45.515
lradius 39.9126
lwrist -5.65909
lhand -33.1856 -5.20795
lfingers 7.12502
lthumb -186.393 204.676
rfemur -34.3389 8.73654 25.8859
rtibia 41.6479
rfoot -12.2949 23.9674
rtoes 20.5292
lfemur -3.85032 15.0045 2.20409
ltibia 25.6411
lfoot -11.4639 18.5893
ltoes -16.5089
187
root -6.53145 17.46 2.45727 2.97128 50.7835 -9.85901
lowerback 5.03303 -9.42739 -12.1757
upperback 0.804698 -13.1028 -2.54632
thorax 0.148288 -6.50367 4.31829
lowerneck -7.76505 20.1504 2.70444
upperneck 16.7525 30.5278 -14.2334
head 9.24912 13.3993 -1.41102
rclavicle 7.71285e-014 1.59028e-014
rhumerus 30.8535 -20.8602 -60.6884
rradius 108.192
rwrist 7.09565
rhand -65.2404 46.2006
rfingers 7.12502
rthumb -37.125 20.1685
lclavicle 7.71285e-014 1.59028e-014
lhumerus 108.886 -39.8336 45.5704
lradius 39.7605
lwrist -5.9554
lhand -33.1023 -4.89488
lfingers 7.12502
lthumb -186.313 204.991
rfemur -34.3091 8.81779 25.8875
rtibia 41.5316
rfoot -12.2326 23.7654
rtoes 19.9564
lfemur -3.96764 15.2279 2.26029
ltibia 25.81
lfoot -11.3744 18.4237
ltoes -17.2089
188
root -6.53642 17.4636 2.4393 2.68777 50.8779 -10.2337
lowerback 5.17147 -9.39572 -11.9569
upperback 0.826351 -13.0712 -2.49447
thorax 0.0540518 -6.48554 4.2893
lowerneck -7.63736 20.1492 2.73878
upperneck 16.6798 30.4971 -14.2243
head 9.20196 13.4031 -1.43404
rclavicle 9.62118e-014 3.18055e-014
rhumerus 30.8472 -20.8273 -60.7933
rradius 108.092
rwrist 6.47153
rhand -65.2015 45.4871
rfingers 7.12502
rthumb -37.0883 19.4455
lclavicle 9.62118e-014 3.18055e-014
lhumerus 108.817 -39.8566 45.544
lradius 39.6228
lwrist -6.24371
lhand -32.92 -4.49143
lfingers 7.12502
lthumb -186.137 205.4
rfemur -34.2877 8.82988 26.092
rtibia 41.3639
rfoot -12.1719 23.5794
rtoes 19.6902
lfemur -4.17373 15.835 2.48934
ltibia 26.0783
lfoot -10.6274 18.254
ltoes -20.5505
189
root -6.54257 17.47 2.41697 2.53416 50.9923 -10.5958
lowerback 5.20469 -9.36855 -11.7687
upperback 0.849834 -13.031 -2.38328
thorax 0.0393039 -6.46862 4.31358
lowerneck -7.66008 20.1414 2.77631
upperneck 16.7385 30.5152 -14.2982
head 9.24769 13.3998 -1.44898
rclavicle 1.07344e-014 2.54444e-014
rhumerus 30.9763 -20.8264 -61.0114
rradius 107.935
rwrist 5.85475
rhand -65.0832 45.8756
rfingers 7.12502
rthumb -36.9764 19.805
lclavicle 1.07344e-014 2.54444e-014
lhumerus 108.805 -39.824 45.5903
lradius 39.4755
lwrist -6.34667
lhand -32.6299 -4.25833
lfingers 7.12502
lthumb -185.857 205.641
rfemur -34.403 8.77635 26.2708
rtibia 41.1562
rfoot -11.9497 23.4925
rtoes 21.301
lfemur -4.62901 16.4915 2.65128
ltibia 26.4239
lfoot -9.88598 18.0892
ltoes -23.2312
190
root -6.54964 17.4789 2.3969 2.55471 51.1083 -10.7038
lowerback 5.20336 -9.34723 -11.7957
upperback 0.915391 -12.9979 -2.2974
thorax 0.130472 -6.46107 4.40493
lowerneck -7.77617 20.1287 2.79813
upperneck 16.7804 30.5435 -14.4388
head 9.31488 13.3889 -1.469
rclavicle -4.92986e-014 4.13472e-014
rhumerus 31.1342 -20.7906 -61.3161
rradius 107.732
rwrist 5.2267
rhand -65.0326 46.811
rfingers 7.12502
rthumb -36.9285 20.728
lclavicle -4.92986e-014 4.13472e-014
lhumerus 108.719 -39.7702 45.7436
lradius 39.3253
lwrist -6.41025
lhand -32.2972 -4.10392
lfingers 7.12502
lthumb -185.536 205.804
rfemur -34.4957 8.77397 26.2782
rtibia 40.96
rfoot -11.9096 23.2404
rtoes 23.5169
lfemur -5.14152 16.6831 2.67463
ltibia 26.7437
lfoot -9.90451 17.9633
ltoes -22.9879
191
root -6.5558 17.4845 2.37398 2.5973 51.2422 -10.6861
lowerback 5.24862 -9.30425 -11.8445
upperback 0.996116 -12.9413 -2.31108
thorax 0.189546 -6.4385 4.41587
lowerneck -7.79205 20.0487 3.00628
upperneck 16.8025 30.4672 -14.6538
head 9.38962 13.3405 -1.55475
rclavicle -3.49861e-014 1.27222e-014
rhumerus 31.1171 -20.7875 -61.6335
rradius 107.632
rwrist 4.49584
rhand -65.0632 47.066
rfingers 7.12502
rthumb -36.9574 20.9906
lclavicle -3.49861e-014 1.27222e-014
lhumerus 108.67 -39.7918 45.7147
lradius 39.2132
lwrist -6.47832
lhand -31.846 -3.70633
lfingers 7.12502
lthumb -185.1 206.212
rfemur -34.5301 8.81627 26.1767
rtibia 40.8153
rfoot -11.9079 22.8995
rtoes 24.182
lfemur -5.44707 16.6075 2.61422
ltibia 26.9107
lfoot -10.2621 17.8397
ltoes -21.9052
192
root -6.56128 17.4883 2.34576 2.66443 51.3694 -10.6341
lowerback 5.36249 -9.23637 -11.8778
upperback 1.03685 -12.8647 -2.34922
thorax 0.15606 -6.39906 4.41351
lowerneck -7.76655 19.9729 3.21113
upperneck 16.9409 30.3879 -14.7253
head 9.47064 13.2972 -1.60249
rclavicle -2.0276e-014 1.90833e-014
rhumerus 31.0605 -20.8524 -61.9863
rradius 107.553
rwrist 3.5702
rhand -64.8614 46.7296
rfingers 7.12502
rthumb -36.7666 20.6051
lclavicle -2.0276e-014 1.90833e-014
lhumerus 108.587 -39.9444 45.6756
lradius 39.0681
lwrist -6.55195
lhand -31.4193 -3.36325
lfingers 7.12502
lthumb -184.688 206.565
rfemur -34.5899 8.79588 26.0359
rtibia 40.683
rfoot -11.3331 22.7791
rtoes 23.9972
lfemur -5.66187 16.6949 2.47865
ltibia 26.9795
lfoot -10.385 17.7321
ltoes -21.4999
193
root -6.56949 17.4891 2.31945 2.55521 51.5027 -10.751
lowerback 5.53561 -9.17521 -11.9224
upperback 1.10358 -12.8046 -2.29576
thorax 0.143787 -6.37189 4.5151
lowerneck -7.75627 19.9664 3.18517
upperneck 17.0269 30.3843 -14.6631
head 9.4836 13.294 -1.58165
rclavicle 3.69739e-014 7.95139e-014
rhumerus 31.139 -20.8687 -62.3973
rradius 107.409
rwrist 2.44878
rhand -64.532 46.0547
rfingers 7.12502
rthumb -36.4548 19.8513
lclavicle 3.69739e-014 7.95139e-014
lhumerus 108.366 -40.137 45.8725
lradius 38.7398
lwrist -6.90751
lhand -31.1641 -3.33196
lfingers 7.12502
lthumb -184.442 206.601
rfemur -34.602 8.80276 26.0257
rtibia 40.5525
rfoot -10.7185 22.563
rtoes 23.9125
lfemur -5.7704 16.7115 2.52309
ltibia 27.0536
lfoot -10.8753 17.4017
ltoes -20.0168
194
root -6.57788 17.498 2.29452 2.31129 51.6546 -11.0707
lowerback 5.63825 -9.13985 -11.851
upperback 1.21727 -12.7592 -2.18999
thorax 0.209466 -6.35945 4.59277
lowerneck -7.82022 19.9904 3.03422
upperneck 16.9961 30.4174 -14.6285
head 9.45799 13.3037 -1.54765
rclavicle -6.32135e-014 -5.40694e-014
rhumerus 31.2985 -20.7802 -62.8687
rradius 107.255
rwrist 1.36893
rhand -64.5864 45.0187
rfingers 7.12502
rthumb -36.5062 18.8282
lclavicle -6.32135e-014 -5.40694e-014
lhumerus 108.192 -40.162 45.9557
lradius 38.3822
lwrist -7.27882
lhand -30.889 -3.29158
lfingers 7.12502
lthumb -184.176 206.647
rfemur -34.5977 8.88534 26.1396
rtibia 40.41
rfoot -10.6147 22.1703
rtoes 24.9667
lfemur -6.00068 16.8841 2.67234
ltibia 27.1655
lfoot -10.9859 17.2281
ltoes -19.646
195
root -6.58553 17.5085 2.26592 2.27169 51.8535 -11.2129
lowerback 5.68515 -9.12669 -11.7795
upperback 1.32293 -12.7349 -2.15887
thorax 0.283467 -6.35582 4.58574
lowerneck -7.75184 19.9922 2.96006
upperneck 16.6424 30.3905 -14.8398
head 9.34654 13.3037 -1.62492
rclavicle 3.33958e-014 1.90833e-014
rhumerus 31.4113 -20.6768 -63.4387
rradius 106.955
rwrist 0.518222
rhand -64.7407 44.5543
rfingers 7.12502
rthumb -36.6523 18.4007
lclavicle 3.33958e-014 1.90833e-014
lhumerus 108.048 -40.1352 45.8559
lradius 38.2292
lwrist -7.2804
lhand -30.1973 -2.78401
lfingers 7.12502
lthumb -183.508 207.167
rfemur -34.6724 8.8747 26.1138
rtibia 40.2453
rfoot -10.5994 21.862
rtoes 25.6378
lfemur -6.44203 17.2077 2.61885
ltibia 27.356
lfoot -10.7092 17.203
ltoes -20.5908
196
root -6.59444 17.5104 2.23481 2.32859 52.0987 -11.203
lowerback 5.78774 -9.11578 -11.8272
upperback 1.40545 -12.729 -2.13603
thorax 0.329106 -6.35853 4.64124
lowerneck -7.63106 19.9616 2.98923
upperneck 16.3601 30.3335 -15.0927
head 9.27174 13.289 -1.7303
rclavicle 5.20816e-014 0
rhumerus 31.4282 -20.5103 -63.9944
rradius 106.614
rwrist -0.191984
rhand -64.6924 43.789
rfingers 7.12502
rthumb -36.6066 17.6239
lclavicle 5.20816e-014 0
lhumerus 107.753 -40.2374 45.9578
lradius 38.0858
lwrist -7.24291
lhand -29.2793 -2.1161
lfingers 7.12502
lthumb -182.621 207.848
rfemur -34.7501 8.72634 25.9983
rtibia 40.0589
rfoot -10.4692 21.6409
rtoes 25.9945
lfemur -6.87136 17.4883 2.47758
ltibia 27.6246
lfoot -10.3543 17.0407
ltoes -22.1304
